<mxfile host="app.diagrams.net" modified="2023-11-27T14:59:41.283Z" agent="Mozilla/5.0 (Windows NT 10.0; Win64; x64) AppleWebKit/537.36 (KHTML, like Gecko) Chrome/119.0.0.0 Safari/537.36" etag="FGm7MPIehpPAPCD5lxxJ" version="22.1.4" type="device">
  <diagram name="Seite-1" id="hxp_xLQqcb_qcz7ZBRLl">
    <mxGraphModel dx="2954" dy="1150" grid="1" gridSize="10" guides="1" tooltips="1" connect="1" arrows="1" fold="1" page="1" pageScale="1" pageWidth="827" pageHeight="1169" math="0" shadow="0">
      <root>
        <mxCell id="0" />
        <mxCell id="1" parent="0" />
        <mxCell id="OxfzJZ2VuD7AXPFo2Aal-17" style="edgeStyle=orthogonalEdgeStyle;rounded=0;orthogonalLoop=1;jettySize=auto;html=1;exitX=0.5;exitY=0;exitDx=0;exitDy=0;entryX=0.5;entryY=1;entryDx=0;entryDy=0;strokeWidth=2;" edge="1" parent="1" source="OxfzJZ2VuD7AXPFo2Aal-2" target="OxfzJZ2VuD7AXPFo2Aal-13">
          <mxGeometry relative="1" as="geometry" />
        </mxCell>
        <mxCell id="OxfzJZ2VuD7AXPFo2Aal-2" value="&lt;font style=&quot;font-size: 13px;&quot;&gt;Organization&amp;lt;PropertyGroup&amp;gt;&lt;/font&gt;" style="rounded=0;whiteSpace=wrap;html=1;" vertex="1" parent="1">
          <mxGeometry x="340" y="450" width="190" height="60" as="geometry" />
        </mxCell>
        <mxCell id="OxfzJZ2VuD7AXPFo2Aal-4" value="&amp;lt;PropertyGroup&amp;gt;" style="rounded=0;whiteSpace=wrap;html=1;" vertex="1" parent="1">
          <mxGeometry x="420" y="170" width="120" height="60" as="geometry" />
        </mxCell>
        <mxCell id="OxfzJZ2VuD7AXPFo2Aal-18" style="edgeStyle=orthogonalEdgeStyle;rounded=0;orthogonalLoop=1;jettySize=auto;html=1;exitX=0.5;exitY=0;exitDx=0;exitDy=0;entryX=0.5;entryY=1;entryDx=0;entryDy=0;strokeWidth=2;" edge="1" parent="1" source="OxfzJZ2VuD7AXPFo2Aal-9" target="OxfzJZ2VuD7AXPFo2Aal-13">
          <mxGeometry relative="1" as="geometry" />
        </mxCell>
        <mxCell id="OxfzJZ2VuD7AXPFo2Aal-9" value="&lt;font style=&quot;font-size: 13px;&quot;&gt;Information&amp;lt;PropertyGroup&amp;gt;&lt;/font&gt;" style="rounded=0;whiteSpace=wrap;html=1;" vertex="1" parent="1">
          <mxGeometry x="560" y="450" width="190" height="60" as="geometry" />
        </mxCell>
        <mxCell id="OxfzJZ2VuD7AXPFo2Aal-19" style="edgeStyle=orthogonalEdgeStyle;rounded=0;orthogonalLoop=1;jettySize=auto;html=1;exitX=0.5;exitY=0;exitDx=0;exitDy=0;entryX=0.5;entryY=1;entryDx=0;entryDy=0;strokeWidth=2;" edge="1" parent="1" source="OxfzJZ2VuD7AXPFo2Aal-10" target="OxfzJZ2VuD7AXPFo2Aal-13">
          <mxGeometry relative="1" as="geometry" />
        </mxCell>
        <mxCell id="OxfzJZ2VuD7AXPFo2Aal-10" value="&lt;font style=&quot;font-size: 13px;&quot;&gt;Lifecycle&amp;lt;PropertyGroup&amp;gt;&lt;/font&gt;" style="rounded=0;whiteSpace=wrap;html=1;" vertex="1" parent="1">
          <mxGeometry x="780" y="450" width="190" height="60" as="geometry" />
        </mxCell>
        <mxCell id="OxfzJZ2VuD7AXPFo2Aal-20" style="edgeStyle=orthogonalEdgeStyle;rounded=0;orthogonalLoop=1;jettySize=auto;html=1;exitX=0.5;exitY=0;exitDx=0;exitDy=0;entryX=0.5;entryY=1;entryDx=0;entryDy=0;strokeWidth=2;" edge="1" parent="1" source="OxfzJZ2VuD7AXPFo2Aal-11" target="OxfzJZ2VuD7AXPFo2Aal-13">
          <mxGeometry relative="1" as="geometry" />
        </mxCell>
        <mxCell id="OxfzJZ2VuD7AXPFo2Aal-11" value="&lt;font style=&quot;font-size: 13px;&quot;&gt;Implementation&amp;lt;PropertyGroup&amp;gt;&lt;/font&gt;" style="rounded=0;whiteSpace=wrap;html=1;" vertex="1" parent="1">
          <mxGeometry x="1000" y="450" width="200" height="60" as="geometry" />
        </mxCell>
        <mxCell id="OxfzJZ2VuD7AXPFo2Aal-21" style="edgeStyle=orthogonalEdgeStyle;rounded=0;orthogonalLoop=1;jettySize=auto;html=1;exitX=0.5;exitY=0;exitDx=0;exitDy=0;entryX=0.5;entryY=1;entryDx=0;entryDy=0;strokeWidth=2;" edge="1" parent="1" source="OxfzJZ2VuD7AXPFo2Aal-12" target="OxfzJZ2VuD7AXPFo2Aal-4">
          <mxGeometry relative="1" as="geometry" />
        </mxCell>
        <mxCell id="OxfzJZ2VuD7AXPFo2Aal-12" value="&lt;font style=&quot;font-size: 13px;&quot;&gt;Jurisdiction&amp;lt;PropertyGroup&amp;gt;&lt;/font&gt;" style="rounded=0;whiteSpace=wrap;html=1;" vertex="1" parent="1">
          <mxGeometry x="90" y="310" width="190" height="60" as="geometry" />
        </mxCell>
        <mxCell id="OxfzJZ2VuD7AXPFo2Aal-22" style="edgeStyle=orthogonalEdgeStyle;rounded=0;orthogonalLoop=1;jettySize=auto;html=1;exitX=0.5;exitY=0;exitDx=0;exitDy=0;strokeWidth=2;" edge="1" parent="1" source="OxfzJZ2VuD7AXPFo2Aal-13">
          <mxGeometry relative="1" as="geometry">
            <mxPoint x="480" y="230" as="targetPoint" />
          </mxGeometry>
        </mxCell>
        <mxCell id="OxfzJZ2VuD7AXPFo2Aal-13" value="&lt;font style=&quot;font-size: 13px;&quot;&gt;Enterprise&amp;lt;PropertyGroup&amp;gt;&lt;/font&gt;" style="rounded=0;whiteSpace=wrap;html=1;" vertex="1" parent="1">
          <mxGeometry x="670" y="310" width="190" height="60" as="geometry" />
        </mxCell>
      </root>
    </mxGraphModel>
  </diagram>
</mxfile>
